<svg width="17" height="14" viewBox="0 0 17 14" fill="none" xmlns="http://www.w3.org/2000/svg">
<path d="M15.7429 3.34314C15.5081 2.81227 15.1697 2.3312 14.7464 1.92686C14.3228 1.52132 13.8234 1.19904 13.2754 0.977549C12.7071 0.746965 12.0975 0.628939 11.4821 0.630322C10.6187 0.630322 9.7764 0.861236 9.04438 1.29741C8.86926 1.40175 8.70289 1.51635 8.54528 1.64121C8.38767 1.51635 8.2213 1.40175 8.04618 1.29741C7.31416 0.861236 6.47182 0.630322 5.60846 0.630322C4.98677 0.630322 4.38435 0.746635 3.8152 0.977549C3.26531 1.19991 2.76971 1.51977 2.34416 1.92686C1.92035 2.33075 1.58181 2.81193 1.34771 3.34314C1.10428 3.89562 0.979946 4.48232 0.979946 5.08611C0.979946 5.6557 1.09903 6.24924 1.33545 6.85304C1.53334 7.35763 1.81704 7.88103 2.17954 8.40957C2.75395 9.24599 3.54375 10.1183 4.52445 11.0027C6.14959 12.4685 7.75898 13.4811 7.82728 13.5222L8.24232 13.7822C8.4262 13.8968 8.66261 13.8968 8.84649 13.7822L9.26154 13.5222C9.32984 13.4794 10.9375 12.4685 12.5644 11.0027C13.5451 10.1183 14.3349 9.24599 14.9093 8.40957C15.2718 7.88103 15.5572 7.35763 15.7534 6.85304C15.9898 6.24924 16.1089 5.6557 16.1089 5.08611C16.1106 4.48232 15.9863 3.89562 15.7429 3.34314Z" fill="white"/>
</svg>
